<svg xmlns="http://www.w3.org/2000/svg" width="428" height="390" viewBox="0 0 428 390">
  <g id="Group_1" data-name="Group 1" transform="translate(0 -650.888)">
    <g id="Group_9" data-name="Group 9" transform="translate(398 1010.939)">
      <path id="Rectangle_9" data-name="Rectangle 9" d="M30,0h0a0,0,0,0,1,0,0V30a0,0,0,0,1,0,0H0a0,0,0,0,1,0,0v0A30,30,0,0,1,30,0Z" transform="translate(0 29.949) rotate(-90)" fill="#fff"/>
      <path id="Rectangle_8" data-name="Rectangle 8" d="M30,0h0a0,0,0,0,1,0,0V30a0,0,0,0,1,0,0H0a0,0,0,0,1,0,0v0A30,30,0,0,1,30,0Z" transform="translate(30 -0.051) rotate(90)" fill="#dee2e6"/>
    </g>
    <path id="Rectangle_2" data-name="Rectangle 2" d="M30,0H428a0,0,0,0,1,0,0V330a0,0,0,0,1,0,0H30A30,30,0,0,1,0,300V30A30,30,0,0,1,30,0Z" transform="translate(0 680.888)" fill="#fff"/>
    <g id="Group_8" data-name="Group 8" transform="translate(398 650.888)">
      <path id="Rectangle_3" data-name="Rectangle 3" d="M30,0h0a0,0,0,0,1,0,0V30a0,0,0,0,1,0,0H0a0,0,0,0,1,0,0v0A30,30,0,0,1,30,0Z" fill="#fff"/>
      <path id="Rectangle_4" data-name="Rectangle 4" d="M30,0h0a0,0,0,0,1,0,0V30a0,0,0,0,1,0,0H0a0,0,0,0,1,0,0v0A30,30,0,0,1,30,0Z" transform="translate(30 30) rotate(180)" fill="#dee2e6"/>
      <path id="Rectangle_5" data-name="Rectangle 5" d="M30,0h0a0,0,0,0,1,0,0V30a0,0,0,0,1,0,0H0a0,0,0,0,1,0,0v0A30,30,0,0,1,30,0Z" fill="#fff"/>
      <path id="Rectangle_6" data-name="Rectangle 6" d="M30,0h0a0,0,0,0,1,0,0V30a0,0,0,0,1,0,0H0a0,0,0,0,1,0,0v0A30,30,0,0,1,30,0Z" transform="translate(30 30) rotate(180)" fill="#dee2e6"/>
    </g>
  </g>
</svg>
